<?xml version="1.0" standalone="no"?>
<!DOCTYPE svg PUBLIC "-//W3C//DTD SVG 20010904//EN"
 "http://www.w3.org/TR/2001/REC-SVG-20010904/DTD/svg10.dtd">
<svg version="1.0" xmlns="http://www.w3.org/2000/svg"
 width="512.000000pt" height="512.000000pt" viewBox="0 0 512.000000 512.000000"
 preserveAspectRatio="xMidYMid meet">

<g transform="translate(0.000000,512.000000) scale(0.100000,-0.100000)"
fill="#000000" stroke="none">
<path d="M1743 4901 c-110 -40 -201 -128 -244 -238 -21 -53 -23 -78 -27 -270
l-4 -212 -381 -3 -382 -3 -53 -29 c-65 -37 -107 -83 -140 -156 -22 -46 -27
-73 -30 -172 l-4 -118 -109 0 c-85 0 -120 -4 -164 -21 -67 -25 -141 -94 -175
-164 l-25 -50 0 -1195 0 -1195 26 -56 c33 -69 88 -124 159 -158 52 -25 65 -26
243 -29 l187 -4 0 -274 c0 -292 4 -319 49 -344 51 -27 74 -16 662 305 l577
315 1048 2 1049 3 47 22 c70 32 131 94 163 165 23 52 29 79 33 174 l5 112 111
5 c67 3 130 11 158 22 66 23 141 94 175 163 l28 57 3 727 3 727 57 11 c31 7
81 24 110 38 72 35 163 133 194 209 l23 58 0 646 0 645 -38 76 c-43 88 -107
152 -195 195 l-57 28 -559 3 -559 3 -29 -28 c-30 -29 -38 -85 -17 -125 25 -46
45 -48 592 -48 l514 0 44 -23 c24 -13 58 -43 74 -66 l30 -43 3 -601 c3 -675 5
-655 -68 -721 -21 -19 -56 -39 -77 -45 -57 -16 -2888 -15 -2951 1 -60 15 -124
77 -141 138 -9 34 -11 189 -9 631 l3 586 30 48 c20 32 45 56 74 72 l44 23 514
0 c575 0 571 0 599 65 12 29 13 44 4 70 -22 67 -1 65 -602 65 -504 -1 -547 -2
-595 -19z m-273 -1061 l0 -140 -395 0 -395 0 0 91 c0 102 14 145 58 171 24 16
65 17 380 18 l352 0 0 -140z m0 -395 c0 -210 134 -383 328 -424 37 -8 386 -11
1153 -11 l1099 0 -2 -947 c-3 -912 -4 -949 -22 -976 -41 -60 20 -57 -1122 -57
l-1047 0 -513 -280 c-281 -154 -514 -280 -518 -280 -3 0 -6 111 -6 248 0 219
-2 249 -18 268 -33 41 -52 44 -285 44 -217 0 -225 1 -258 23 -18 12 -39 34
-46 47 -10 20 -13 273 -13 1163 0 1246 -3 1182 58 1219 25 16 79 17 620 18
l592 0 0 -55z m3060 -1132 c0 -645 -1 -701 -18 -733 -26 -52 -70 -70 -174 -70
l-88 0 0 750 0 750 140 0 140 0 0 -697z"/>
<path d="M934 2621 c-98 -25 -195 -106 -242 -201 -24 -49 -27 -66 -27 -155 0
-93 2 -104 32 -160 38 -74 105 -138 181 -173 47 -22 71 -27 142 -27 74 0 93 4
150 31 198 94 270 313 167 507 -59 112 -167 179 -297 183 -41 2 -89 0 -106 -5z
m168 -213 c98 -55 112 -177 29 -259 -51 -52 -112 -61 -178 -28 -59 30 -84 64
-90 122 -7 59 1 88 34 128 52 61 135 76 205 37z"/>
<path d="M2025 2617 c-106 -36 -182 -100 -232 -197 -25 -49 -28 -65 -28 -150
0 -88 3 -101 33 -162 76 -156 247 -236 412 -194 194 49 314 246 266 436 -42
164 -170 270 -336 277 -44 2 -91 -3 -115 -10z m179 -210 c56 -31 91 -100 82
-162 -12 -77 -89 -145 -163 -145 -73 1 -148 64 -160 134 -23 142 118 243 241
173z"/>
<path d="M3123 2616 c-104 -34 -185 -106 -232 -205 -22 -48 -26 -69 -26 -146
0 -76 5 -99 27 -147 32 -69 106 -145 171 -177 26 -12 76 -28 111 -34 128 -22
272 41 348 153 162 238 4 555 -282 567 -45 2 -92 -3 -117 -11z m200 -219 c97
-74 81 -224 -29 -278 -151 -73 -302 112 -201 245 55 71 160 87 230 33z"/>
<path d="M3229 4891 c-77 -77 6 -199 106 -157 25 11 40 26 51 51 42 100 -80
183 -157 106z"/>
<path d="M2044 4455 c-43 -30 -45 -49 -42 -503 l3 -432 28 -27 27 -28 169 -3
c191 -4 222 4 246 61 18 43 9 82 -27 112 -28 23 -37 25 -139 25 l-109 0 0 376
0 376 -29 29 c-33 33 -91 40 -127 14z"/>
<path d="M2676 4439 l-26 -31 0 -441 c0 -404 2 -444 18 -463 41 -52 109 -55
153 -8 l24 26 3 431 c2 312 -1 439 -9 460 -16 39 -46 57 -95 57 -35 0 -47 -5
-68 -31z"/>
<path d="M3116 4444 c-18 -19 -26 -37 -26 -63 0 -20 61 -212 142 -446 149
-429 161 -455 222 -471 37 -9 72 2 105 34 25 23 51 91 165 437 75 226 136 425
136 443 0 78 -106 123 -161 68 -17 -17 -52 -108 -119 -310 -52 -157 -97 -286
-101 -286 -3 0 -51 129 -105 286 -68 198 -106 293 -123 310 -34 35 -99 34
-135 -2z"/>
<path d="M4115 4461 c-11 -5 -29 -19 -40 -31 -19 -21 -20 -36 -20 -466 l0
-444 28 -27 27 -28 206 -3 205 -3 34 34 c22 22 35 45 35 61 0 35 -25 83 -49
96 -11 5 -81 10 -155 10 l-136 0 0 99 0 99 123 3 c96 3 129 8 150 22 50 32 52
123 4 159 -17 14 -48 18 -147 20 l-125 3 -3 103 -3 102 140 0 c131 0 142 1
166 23 17 14 28 36 32 63 5 36 1 46 -25 75 l-30 34 -199 2 c-109 1 -207 -1
-218 -6z"/>
</g>
</svg>
